<?xml version="1.0" encoding="utf-8" ?>
<svg xmlns="http://www.w3.org/2000/svg" xmlns:xlink="http://www.w3.org/1999/xlink" width="1024" height="1024">
	<path fill="#ED9108" d="M405.474 39.6647C447.478 30.1286 489.938 25.5398 533.028 27.6021C547.635 28.3012 562.122 30.0838 576.632 31.8044C603.858 36.2309 630.143 41.7245 656.496 50.0492C690.022 60.6399 722.23 75.5283 752.581 93.1808C781.488 109.993 809.037 129.401 833.408 152.357C843.267 161.643 854.319 171.071 862.643 181.788C874.83 194.803 886.334 209.048 896.944 223.364C901.997 230.183 907.294 237.053 911.686 244.32C922.325 260.481 932.03 276.791 940.795 294.051C944.014 300.388 947.506 306.747 950.152 313.346C961.406 339.699 971.499 366.917 978.457 394.75C998.58 475.255 996.847 563.43 973.736 643.099C969.113 659.034 963.203 674.571 957.016 689.955C944.342 721.471 927.714 751.09 908.321 778.919C856.465 853.339 784.782 912.196 701.229 947.781L676.958 957.435L600.469 978.844C526.376 994.167 447.339 989.111 374.895 968.292C359.754 963.941 344.063 959.074 329.644 952.683L329.015 952.409L326.5 951.486C312.464 945.936 298.635 939.148 285.277 932.143C214.421 894.986 152.533 838.888 109.25 771.525C94.4008 748.414 82.1138 723.903 71.3952 698.651C41.5986 628.451 29.2166 551.79 33.9007 475.75C35.483 450.063 38.5384 424.843 44.1162 399.688C49.8115 374.002 58.102 348.371 67.9826 323.982C105.469 231.452 174.339 152.698 258.997 100.25C281.902 86.0597 306.252 74.0649 331.037 63.5641L405.474 39.6647Z"/>
	<path fill="#842B03" d="M573.319 33.0769C574.695 37.4218 572.584 56.1424 570.899 60.0108L570.476 59.9251L570.306 59.5534C569.769 57.8718 570.423 54.6353 570.561 52.753C571.023 46.4658 570.527 38.8044 573.319 33.0769Z"/>
	<path fill="#842B03" d="M488.446 54.962C487.692 49.2656 486.834 43.5791 486.195 37.8686C485.918 35.3894 485.317 32.6661 486.044 30.25L486.411 30.25C489.609 37.5022 489.526 47.2844 489.515 55.0597L488.446 54.962Z"/>
	<path fill="#842B03" d="M405.474 39.6647C409.114 44.3356 410.414 51.909 411.643 57.6247C412.093 59.7148 412.865 62.3532 412.662 64.4861L412.032 64.558C410.442 60.4288 409.254 56.1452 407.988 51.9077C406.815 47.985 405.37 43.7997 405.474 39.6647Z"/>
	<path fill="#842B03" d="M657.41 50.3006C655.059 60.2817 650.853 70.6477 645.733 79.5333L645.474 79.4539C645.175 77.2621 646.616 74.4134 647.363 72.3688C650.174 64.6803 653.194 57.3416 657.41 50.3006Z"/>
	<path fill="#842B03" d="M337.126 921.603C336.57 930.296 334.111 938.217 331.75 946.536C331.191 948.505 331.042 951.201 329.644 952.683L329.015 952.409C330.848 942.01 332.995 931.366 337.126 921.603Z"/>
	<path fill="#842B03" d="M419.276 945.687L420.083 946.27C421.572 947.605 421.54 953.755 421.658 955.704C422.13 963.543 422.509 971.473 421.784 979.302C420.489 976.457 420.368 973.389 420.014 970.324C419.118 962.551 418.278 953.443 419.276 945.687Z"/>
	<path fill="#AD4F05" d="M501.81 951.187C502.29 951.496 502.862 951.694 503.25 952.112C504.09 953.018 505.004 956.885 505.441 958.219C508.302 966.951 510.888 975.762 513.126 984.675L510.048 984.386C508.327 982.034 507.762 977.858 507.001 975C505.083 967.8 501.491 958.618 501.81 951.187Z"/>
	<path fill="#C87A0C" d="M579.959 943.021L646.463 926.474C648.5 929.715 651.298 932.561 653.85 935.402C660.599 942.911 668.228 950.595 676.424 956.497L676.958 957.435L600.469 978.844L599.784 977.976C597.195 975.75 595.247 972.698 593.286 969.925C589.307 964.298 585.618 958.451 582.464 952.319C581.071 949.61 579.518 946.778 579.002 943.75L579.959 943.021Z"/>
	<path fill="#AD4F05" d="M599.784 977.976C597.195 975.75 595.247 972.698 593.286 969.925C589.307 964.298 585.618 958.451 582.464 952.319C581.071 949.61 579.518 946.778 579.002 943.75L579.959 943.021C582.707 944.931 584.575 948.695 586.412 951.5C591.65 959.497 597.779 968.107 601.341 977C600.394 977.829 600.916 977.509 599.784 977.976Z"/>
	<path fill="#C87A0C" d="M835.669 200.666C837.856 199.234 840.059 197.622 842.25 196.255C842.977 195.801 843.581 195.453 844.251 194.894L846.25 193.255C848.128 191.978 849.884 190.547 851.75 189.255C852.468 188.758 853.091 188.439 853.783 187.863C854.579 187.199 854.383 187.296 855.25 186.755C855.996 186.29 856.594 185.937 857.283 185.363C858.086 184.693 859.035 183.931 860.003 183.502C861.087 183.022 861.715 182.535 862.643 181.788C874.83 194.803 886.334 209.048 896.944 223.364C901.997 230.183 907.294 237.053 911.686 244.32C922.325 260.481 932.03 276.791 940.795 294.051C944.014 300.388 947.506 306.747 950.152 313.346C939.995 318.618 927.525 320.214 916.702 323.965C916.125 321.052 914.228 317.584 913.033 314.846C906.598 300.094 898.877 286.549 890.569 272.807C888.159 268.822 885.979 264.583 883.452 260.695C878.228 254.609 873.955 247.433 869.303 240.888C863.452 232.653 856.944 224.954 850.459 217.221C845.718 211.567 841.128 205.65 835.669 200.666Z"/>
	<path fill="#AD4F05" d="M867.747 261.12C869.119 261.699 869.614 263.049 870.387 264.291C872.414 267.547 874.429 270.795 876.37 274.103C887.857 293.678 898.804 312.998 907.36 334.099C920.395 366.245 930.385 399.241 936.295 433.454C938.984 449.022 940.392 465.204 941.29 480.973C943.159 513.79 941.9 546.553 936.33 578.979C934.315 590.709 931.345 602.486 928.373 614.008C923.528 632.788 918.128 651.806 910.389 669.622C902.912 686.839 894.868 703.793 885.403 720.015C872.997 741.276 858.506 761.492 842.827 780.451C828.549 797.715 813.525 814.393 797.009 829.572C787.219 838.568 776.592 846.902 765.96 854.875C735.945 877.383 703.718 895.996 668.811 909.794C634.089 923.519 597.6 933.283 560.534 937.935C527.299 942.107 494.285 941.907 461 938.547C449.674 937.404 438.277 936.173 427.057 934.25C393.044 928.42 359.541 917.854 327.949 904.048C316.673 899.12 305.284 894.118 294.474 888.236C278.056 879.301 262.808 868.946 247.183 858.749C242.203 855.499 237.292 852.122 232.502 848.599C230.165 846.88 227.189 845.012 225.58 842.565C231.467 846.411 236.925 850.871 242.828 854.716C261.862 867.113 281.156 877.86 301.521 887.863L366.127 912.247C386.436 918.109 407.053 922.911 428 925.865C523.28 939.302 621.347 920.79 705.39 873.969C733.407 858.361 759.031 839.246 782.947 817.938C795.357 806.882 806.781 795.267 818.134 783.139C824.936 775.872 831.862 768.679 838.111 760.923C864.83 727.756 885.861 690.555 901.649 651.081C907.082 637.494 912.216 623.87 916.25 609.785C929.438 563.742 936.116 514.699 933.663 466.786C931.569 425.872 922.949 385.607 909.52 347C902.581 327.053 894.48 307.803 884.24 289.312C880.876 284.116 878.008 278.631 874.846 273.314C872.508 269.383 869.508 265.336 867.747 261.12Z"/>
	<path fill="#AD4F05" d="M950.152 313.346C961.406 339.699 971.499 366.917 978.457 394.75C998.58 475.255 996.847 563.43 973.736 643.099C969.113 659.034 963.203 674.571 957.016 689.955C944.342 721.471 927.714 751.09 908.321 778.919C856.465 853.339 784.782 912.196 701.229 947.781L676.958 957.435L676.424 956.497C668.228 950.595 660.599 942.911 653.85 935.402C651.298 932.561 648.5 929.715 646.463 926.474L648.114 925.416C650.299 925.328 652.657 924.095 654.692 923.325C658.593 921.848 662.532 920.485 666.404 918.931C706.807 902.716 743.98 881.702 778.381 855.009L827.395 811.354L829.347 809.475L874.793 753.788L875.289 752.732L910.437 689.796L911.985 686.846L936.743 619.777C937.251 618.502 937.469 617.129 937.75 615.79L950.887 546.735L951.015 545.815C951.554 533.448 953.096 521.15 953.379 508.75C953.709 494.25 953.572 479.464 952.357 465C950.441 442.192 946.292 419.764 941.443 397.43L940.528 394.469C940.212 390.986 938.553 386.788 937.62 383.373C933.921 369.828 929.267 356.574 924.293 343.452C921.828 336.952 918.953 330.515 916.702 323.965C927.525 320.214 939.995 318.618 950.152 313.346Z"/>
	<path fill="#842B03" d="M721.962 898.05C726.871 901.115 731.593 905.461 735.905 909.311C740.012 913.247 746.517 918.6 748.576 923.866L734.891 911.462L721.962 898.05Z"/>
	<path fill="#842B03" d="M778.381 855.009C781.618 855.816 784.913 858.976 787.612 860.989C793.624 865.471 800.075 869.871 805.455 875.104C806.829 876.44 808.708 877.977 809.668 879.644L809.987 880.227C798.321 874.622 788.631 864.703 779.19 856.083C778.646 855.587 778.843 855.774 778.381 855.009Z"/>
	<path fill="#842B03" d="M829.347 809.475C833.762 812.011 837.698 815.58 841.591 818.841C848.221 824.395 854.488 829.905 860.349 836.271C848.853 829.234 837.596 820.154 827.395 811.354L829.347 809.475Z"/>
	<path fill="#842B03" d="M954.422 470.419C957.58 471.06 960.962 470.991 964.18 471.132C968.673 471.33 973.163 471.673 977.657 471.813C979.79 471.88 985.149 471.408 986.75 472.571L987.087 475.682C979.058 475.414 971.072 474.762 963.052 474.35C961.017 474.246 956.155 474.711 954.555 473.5L954.422 470.419Z"/>
	<path fill="#842B03" d="M951.015 545.815C955.371 545.591 960.27 546.744 964.557 547.518C971.832 548.831 979.159 550.228 986.393 551.75C986.994 553.083 986.633 553.511 986.25 554.888C982.76 555.491 976.274 553.105 972.656 552.318C966.004 550.869 959.376 549.606 952.642 548.606C951.776 548.477 952.077 548.531 951.194 548.034L950.887 546.735L951.015 545.815Z"/>
	<path fill="#842B03" d="M911.985 686.846C920.341 690.779 928.814 694.507 937.079 698.626C940.141 700.151 944.466 701.812 946.686 704.467L946.422 705.388C944.018 705.994 939.358 703.096 937.012 702.008C928.247 697.944 919.463 693.177 910.437 689.796L911.985 686.846Z"/>
	<path fill="#842B03" d="M648.114 925.416C654.778 931.532 661.056 938.076 667.408 944.513C670.474 947.619 675.211 951.428 677.008 955.428L676.424 956.497C668.228 950.595 660.599 942.911 653.85 935.402C651.298 932.561 648.5 929.715 646.463 926.474L648.114 925.416Z"/>
	<path fill="#842B03" d="M875.289 752.732C880.231 755.78 884.718 759.668 889.5 762.986C893.545 765.791 897.745 768.257 901.904 770.879C903.704 772.014 906.241 773.285 907.494 775C907.198 776.191 906.477 777.016 905.75 777.971C903.354 777.297 900.331 774.489 898.231 773.006C892.093 768.672 885.194 764.434 879.635 759.365C877.826 757.717 876.304 755.708 874.793 753.788L875.289 752.732Z"/>
	<path fill="#842B03" d="M937.75 615.79C946.515 618.531 955.32 621.07 964.023 624.016C966.337 624.799 970.036 625.512 971.812 627.153C971.612 628.303 971.418 628.963 970.75 629.926C959.412 627.17 948.348 621.326 936.743 619.777C937.251 618.502 937.469 617.129 937.75 615.79Z"/>
	<path fill="#842B03" d="M940.528 394.469C944.132 393.166 949.147 393.57 953.01 393.168C957.34 392.718 961.686 392.246 966 391.669C968.272 391.365 971.227 390.54 973.447 391.045C974.036 392.351 974.303 393.608 974.585 395L974 395.799C967.939 396.087 961.877 396.406 955.811 396.565C951.171 396.688 946.005 396.607 941.443 397.43L940.528 394.469Z"/>
	<path fill="#F4AE0B" d="M884.24 289.312C894.48 307.803 902.581 327.053 909.52 347C922.949 385.607 931.569 425.872 933.663 466.786C936.116 514.699 929.438 563.742 916.25 609.785C912.216 623.87 907.082 637.494 901.649 651.081C885.861 690.555 864.83 727.756 838.111 760.923C831.862 768.679 824.936 775.872 818.134 783.139C806.781 795.267 795.357 806.882 782.947 817.938C759.031 839.246 733.407 858.361 705.39 873.969C621.347 920.79 523.28 939.302 428 925.865C407.053 922.911 386.436 918.109 366.127 912.247L301.521 887.863L353.309 839.972C360.002 842.416 366.533 845.325 373.255 847.697C392.962 854.651 413.435 860.242 433.972 864.12C447.083 866.596 460.696 867.715 474 868.465C502.421 870.069 531.65 869.004 559.75 864.314C584.805 860.133 609.846 852.725 633.5 843.526C664.388 831.513 693.899 815.049 720.233 794.894C727.176 789.58 733.727 783.493 740.242 777.657C779.82 742.202 814.94 698.308 836.34 649.467C865.79 582.256 875.952 506.589 863.018 434.156C858.239 407.398 850.187 381.226 840.339 355.928L840.498 355.592C842.759 350.57 846.068 346.073 849.11 341.5C854.178 333.884 859.383 326.369 864.591 318.849C871.325 309.126 877.595 299.085 884.24 289.312Z"/>
	<path fill="#F8D323" d="M488.446 54.962L489.515 55.0597C506.497 55.1096 523.316 55.3849 540.25 56.7952C546.582 57.3225 552.919 58.0238 559.227 58.7839C562.784 59.2124 566.94 60.3112 570.476 59.9251L570.899 60.0108C574.44 61.2987 578.296 61.5674 581.972 62.3848C590.73 64.3324 599.465 66.3298 608.147 68.6027C616.195 70.7095 624.212 72.876 632.168 75.3119C636.387 76.6037 641.166 78.7711 645.474 79.4539L645.733 79.5333C647.35 81.083 649.937 81.6202 652.005 82.3895C664.417 87.0053 676.448 92.1773 688.245 98.2018C718.035 113.416 745.422 131.648 771.659 152.335C799.867 174.576 824.961 202.039 846.625 230.614C851.7 237.306 856.368 244.354 861.061 251.319C863.056 254.281 865.17 258.739 867.747 261.12C869.508 265.336 872.508 269.383 874.846 273.314C878.008 278.631 880.876 284.116 884.24 289.312C877.595 299.085 871.325 309.126 864.591 318.849C859.383 326.369 854.178 333.884 849.11 341.5C846.068 346.073 842.759 350.57 840.498 355.592L840.339 355.928C850.187 381.226 858.239 407.398 863.018 434.156C875.952 506.589 865.79 582.256 836.34 649.467C814.94 698.308 779.82 742.202 740.242 777.657C733.727 783.493 727.176 789.58 720.233 794.894C693.899 815.049 664.388 831.513 633.5 843.526C609.846 852.725 584.805 860.133 559.75 864.314C531.65 869.004 502.421 870.069 474 868.465C460.696 867.715 447.083 866.596 433.972 864.12C413.435 860.242 392.962 854.651 373.255 847.697C366.533 845.325 360.002 842.416 353.309 839.972L301.521 887.863C281.156 877.86 261.862 867.113 242.828 854.716C236.925 850.871 231.467 846.411 225.58 842.565C224.492 840.47 208.591 828.85 205.732 826.514C199.983 821.815 194.279 816.877 188.77 811.903C172.355 797.082 157.39 780.639 143.479 763.5C138.544 757.42 133.452 751.443 128.83 745.116C109.824 719.097 93.5894 689.595 81.9258 659.579C76.9803 646.852 72.0154 633.659 68.4092 620.493C48.6081 548.199 48.1591 471.155 65.1973 398.304C71.0819 373.142 78.7233 348.74 89.1749 325.074C96.1909 309.188 103.673 293.359 112.462 278.371C163.138 191.959 244.109 123.085 337.489 86.838L412.032 64.558L412.662 64.4861C416.15 64.5139 419.952 63.3265 423.381 62.6743C430.429 61.334 437.502 59.9861 444.623 59.0925C454.465 57.8575 464.304 56.9386 474.187 56.1176C478.915 55.7248 483.782 55.8203 488.446 54.962Z"/>
	<path fill="#F4AE0B" d="M125.537 712.292C121.882 706.876 118.942 700.871 115.952 695.07C108.084 679.808 101.619 664.091 95.3278 648.138C86.5722 625.935 80.6042 602.429 76.4291 578.964C61.5447 495.313 71.8301 407.828 106.006 330C152.251 224.686 241.501 142.681 348.371 101.325C378.074 89.8312 409.121 81.1129 440.638 76.3301C499.152 67.4501 561.583 71.2065 618.5 87.557C633.537 91.8767 648.542 96.9337 663 102.922C671.541 106.459 679.831 110.549 688.285 114.281L632.685 157.443C656.047 167.085 677.82 178.507 699.04 192.229C707.041 197.403 716.297 203.409 722.957 210.28C719.888 208.957 716.895 206.133 714.077 204.25C709.528 201.21 704.699 198.295 699.939 195.597C682.907 185.943 664.907 177.658 646.631 170.661C635.336 166.336 623.837 162.259 612.009 159.634C607.786 158.128 603.369 157.356 599 156.385C589.629 154.303 580.271 152.669 570.75 151.421C500.583 142.224 426.173 153.967 362.219 184.337C320.701 204.054 281.526 231.595 250.333 265.517C233.964 283.319 219.707 302.928 207.062 323.51C195.87 341.726 185.287 361.593 178.083 381.778C170.668 402.557 163.9 423.644 159.662 445.337C157.603 455.878 156.554 466.689 155.706 477.39C153.792 501.512 154.093 525.403 156.709 549.466C161.684 600.809 177.434 649.223 203.274 693.834C210.061 705.553 217.362 717.381 225.515 728.208C233.395 738.671 241.889 748.754 250.567 758.56C252.162 760.362 258.5 765.8 258.917 767.595C257.627 767.07 256.196 765.467 255.133 764.527C251.737 761.525 248.371 758.518 245.123 755.354C225.817 736.539 208.057 715.715 193.14 693.239C186.325 682.971 180.359 672.23 174.388 661.46L125.537 712.292Z"/>
	<path fill="#AD4F05" d="M174.388 661.46L164.704 641.637C127.594 557.083 127.361 456.852 160.717 371.142C189.244 297.841 241.687 232.639 307.837 189.909C324.843 178.923 343.123 169.675 361.655 161.556C425.222 133.706 498.95 125.533 567.104 138.267C589.552 142.461 611.436 149.145 632.685 157.443C656.047 167.085 677.82 178.507 699.04 192.229C707.041 197.403 716.297 203.409 722.957 210.28C719.888 208.957 716.895 206.133 714.077 204.25C709.528 201.21 704.699 198.295 699.939 195.597C682.907 185.943 664.907 177.658 646.631 170.661C635.336 166.336 623.837 162.259 612.009 159.634C607.786 158.128 603.369 157.356 599 156.385C589.629 154.303 580.271 152.669 570.75 151.421C500.583 142.224 426.173 153.967 362.219 184.337C320.701 204.054 281.526 231.595 250.333 265.517C233.964 283.319 219.707 302.928 207.062 323.51C195.87 341.726 185.287 361.593 178.083 381.778C170.668 402.557 163.9 423.644 159.662 445.337C157.603 455.878 156.554 466.689 155.706 477.39C153.792 501.512 154.093 525.403 156.709 549.466C161.684 600.809 177.434 649.223 203.274 693.834C210.061 705.553 217.362 717.381 225.515 728.208C233.395 738.671 241.889 748.754 250.567 758.56C252.162 760.362 258.5 765.8 258.917 767.595C257.627 767.07 256.196 765.467 255.133 764.527C251.737 761.525 248.371 758.518 245.123 755.354C225.817 736.539 208.057 715.715 193.14 693.239C186.325 682.971 180.359 672.23 174.388 661.46Z"/>
	<path fill="#F6E45C" d="M156.709 549.466C154.093 525.403 153.792 501.512 155.706 477.39C156.554 466.689 157.603 455.878 159.662 445.337C163.9 423.644 170.668 402.557 178.083 381.778C185.287 361.593 195.87 341.726 207.062 323.51C219.707 302.928 233.964 283.319 250.333 265.517C281.526 231.595 320.701 204.054 362.219 184.337C426.173 153.967 500.583 142.224 570.75 151.421C580.271 152.669 589.629 154.303 599 156.385C603.369 157.356 607.786 158.128 612.009 159.634C623.837 162.259 635.336 166.336 646.631 170.661C664.907 177.658 682.907 185.943 699.939 195.597C704.699 198.295 709.528 201.21 714.077 204.25C716.895 206.133 719.888 208.957 722.957 210.28C724.507 210.749 725.7 212.104 726.932 213.125C730.137 215.782 733.278 218.498 736.378 221.276C766.509 248.281 790.118 279.498 809.241 315.04C819.16 333.477 828.34 353.42 835.316 373.134C837.9 380.438 839.706 387.991 841.883 395.416C848.79 421.093 853.454 447.907 854.822 474.479C856.489 506.848 853.231 538.728 846.641 570.393C841.517 595.013 834.312 619.4 824.247 642.484C818.961 654.609 812.642 666.307 806.029 677.75C793.747 698.999 779.072 718.234 762.657 736.427C746.394 754.45 728.962 771.105 709.536 785.704C700.86 792.225 691.776 797.93 682.527 803.593C651.195 822.779 617.51 837.365 581.967 846.71C529.474 860.511 471.486 861.299 418.426 850.2C406.25 847.652 394.623 843.641 382.627 840.543C364.753 834.037 346.851 826.874 330 818.019C322.275 813.96 315.049 809.032 307.396 804.853C297.099 798.84 287.173 791.508 277.875 784.059C274.207 781.121 270.707 777.823 267.002 774.966C265.481 773.792 264.232 772.433 262.755 771.25C261.265 770.057 260.182 769.052 258.917 767.595C258.5 765.8 252.162 760.362 250.567 758.56C241.889 748.754 233.395 738.671 225.515 728.208C217.362 717.381 210.061 705.553 203.274 693.834C177.434 649.223 161.684 600.809 156.709 549.466Z"/>
	<path fill="#FBF4AA" d="M337.836 310.023L419.992 309.907L421.63 310.458L421.894 312.845L421.544 324.311L379.66 324.237C375.212 353.189 371.931 382.212 368.058 411.235C360.735 466.103 353.259 521.066 347.053 576.074C343.986 603.249 340.336 630.341 337.166 657.5C335.751 669.627 334.251 681.697 332.559 693.787C331.823 699.039 331.55 704.608 329.991 709.686C329.173 707.17 329.532 704.171 329.564 701.545C329.616 697.275 329.596 693.006 329.585 688.736C329.544 672.991 329.498 657.245 329.429 641.5C329.201 589.758 329.443 538.02 329.43 486.278C329.415 427.543 329.177 368.798 329.482 310.065L337.836 310.023Z"/>
	<path fill="#FBF4AA" d="M552.529 309.602L621.358 309.928L653.233 309.931L421.482 519.007C421.575 506.629 421.619 494.254 421.545 481.875C421.519 477.38 421.488 472.884 421.464 468.389C421.45 465.782 421.179 462.975 421.746 460.421L440.196 438.801L548.064 311.822C549.667 309.954 550.16 309.775 552.529 309.602Z"/>
	<path fill="#AD4F05" d="M675.876 315.461L676.339 315.097L689.533 336.611L545.371 510.464L580.122 557.509L613.052 602.172C617.251 609.571 623.811 616.646 628.942 623.5C642.633 641.786 656.766 659.853 669.947 678.505C677.911 689.806 686.356 700.773 694.426 712C697.171 715.819 699.951 719.577 702.923 723.227C704.012 724.564 705.022 726.195 706.768 726.666C719.382 715.991 731 703.615 740.75 690.261C742.296 688.144 744.335 686.064 745.222 683.594L747.5 681.078C749.225 681.389 751.048 683.099 752.5 684.086C755.466 686.104 758.494 688.007 761.367 690.16L762.412 690.577L762.59 691.75C750.524 709.732 735.197 728.869 717.514 741.521C714.178 738.11 711.787 733.864 708.517 730.487C707.246 729.174 705.533 728.575 704.25 727.37C701.508 724.796 699.419 721.29 697.06 718.36C696.371 717.505 695.712 716.299 694.656 716.003C696.324 721.046 701.541 725.916 704.116 730.75C705.095 732.589 705.79 734.035 705.135 736.066C701.986 738.586 697.362 738.847 693.5 739.542C659.625 745.641 624.534 742.736 590.255 743.537L546.349 681.471L420.26 805.595L417.061 802.1L420.017 796.599C411.507 793.856 403.3 789.881 395 786.55C388.037 783.755 380.592 781.456 373.981 777.91C383.202 768.324 393.252 759.52 402.51 749.929C405.627 746.7 408.929 743.523 411.681 739.976L336.936 739.357C335.09 736.878 333.407 734.566 331.135 732.439C330.15 730.392 328.2 728.498 326.78 726.72C324.341 723.664 322.019 720.514 319.591 717.451C317.927 715.352 317.82 713.646 317.535 711.058L330.26 711.029L421.842 711.651L421.374 592.917L462.071 547.591C472.135 560.334 481.204 574.024 490.805 587.128C509.64 612.831 528.704 638.369 547.517 664.088C554.58 673.743 561.636 683.401 568.744 693.022C573.542 699.516 578.051 706.19 583.632 712.054L691.121 712.11L523.267 495.35L675.876 315.461Z"/>
	<path fill="#F4AE0B" d="M745.222 683.594L747.5 681.078C749.225 681.389 751.048 683.099 752.5 684.086C755.466 686.104 758.494 688.007 761.367 690.16C755.367 698.021 749.52 706.031 742.976 713.453C735.022 722.474 726.244 730.705 717.394 738.831C714.064 734.725 710.655 730.238 706.768 726.666C719.382 715.991 731 703.615 740.75 690.261C742.296 688.144 744.335 686.064 745.222 683.594Z"/>
	<path fill="#ED9108" d="M472.618 577.388L515.718 638.541L441.047 713.365L441.059 612.823L472.618 577.388Z"/>
	<path fill="#D99A1B" d="M515.718 638.541L546.349 681.471L420.26 805.595L417.061 802.1L420.017 796.599C411.507 793.856 403.3 789.881 395 786.55C388.037 783.755 380.592 781.456 373.981 777.91C383.202 768.324 393.252 759.52 402.51 749.929C405.627 746.7 408.929 743.523 411.681 739.976L441.351 739.972L441.047 713.365L515.718 638.541Z"/>
	<path fill="#F4AE0B" d="M316.651 318.967L316.938 388.665L316.956 477.485L317.535 711.058C317.82 713.646 317.927 715.352 319.591 717.451C322.019 720.514 324.341 723.664 326.78 726.72C328.2 728.498 330.15 730.392 331.135 732.439C333.407 734.566 335.09 736.878 336.936 739.357L411.681 739.976C408.929 743.523 405.627 746.7 402.51 749.929C393.252 759.52 383.202 768.324 373.981 777.91C380.592 781.456 388.037 783.755 395 786.55C403.3 789.881 411.507 793.856 420.017 796.599L417.061 802.1L420.26 805.595C418.686 807.104 417.031 808.61 415.595 810.25C414.19 811.855 413.543 813.84 411.475 814.737C407.527 816.471 405.053 819.415 402.068 822.43C398.499 826.035 394.992 829.684 391.511 833.374C388.912 836.128 386.351 839.389 382.627 840.543C364.753 834.037 346.851 826.874 330 818.019C322.275 813.96 315.049 809.032 307.396 804.853C297.099 798.84 287.173 791.508 277.875 784.059C274.207 781.121 270.707 777.823 267.002 774.966C265.481 773.792 264.232 772.433 262.755 771.25C261.265 770.057 260.182 769.052 258.917 767.595C258.5 765.8 252.162 760.362 250.567 758.56C241.889 748.754 233.395 738.671 225.515 728.208C217.362 717.381 210.061 705.553 203.274 693.834C177.434 649.223 161.684 600.809 156.709 549.466C156.735 548.894 156.54 548.267 156.786 547.75C157.12 547.05 158.965 545.59 159.582 544.976C162.154 542.422 164.723 539.865 167.275 537.291C174.635 529.865 181.633 522.107 189.044 514.728L189.608 513.047L195.505 511.909L196.657 510.014C197.065 507.077 198.464 504.174 199.546 501.421C202.29 494.44 205.521 487.65 208.75 480.885C213.653 470.615 218.669 460.287 223.165 449.833C228.846 436.621 232.969 422.671 237.193 408.941L316.688 327.441L316.651 318.967Z"/>
	<path fill="#F6E45C" d="M284.683 733.694L283.968 731.75C286.196 728.968 288.763 726.49 291.287 723.979C292.382 722.89 293.523 721.409 295 720.904L297.462 722.67C293.076 726.014 289.356 730.95 284.683 733.694Z"/>
	<path fill="#FBF4AA" d="M230.494 666.962L229.508 665L229.738 664.544C230.565 663.345 232.562 662.523 233.813 661.807C236.537 660.248 240.241 657.428 243.25 656.709L244.639 658.384C242.18 662.744 235.001 665.114 230.494 666.962Z"/>
	<path fill="#AD4F05" d="M214.323 586.378L215.386 586.552L234.851 638.384C229.836 641.282 224.531 644.418 219.135 646.531C218.16 645.063 217.367 643.774 216.784 642.106C217.78 641.971 217.442 642.127 218.253 641.613C222.583 638.865 226.984 636.656 231.646 634.513C224.531 619.168 218.476 602.787 214.323 586.378Z"/>
	<path fill="#AD4F05" d="M252.607 669.59C254.918 671.526 256.575 674.191 258.348 676.612C260.578 679.655 262.897 682.628 265.253 685.574C269.919 691.412 275.248 696.956 279.562 703.03C274.853 707.196 270.194 712.388 265.118 715.965C260.714 710.039 256.132 704.303 251.574 698.497C248.666 694.793 245.056 690.813 243.221 686.489L263.453 710.738C267.342 707.1 271.575 703.552 274.832 699.325C267.535 689.45 258.926 680.134 252.607 669.59Z"/>
	<path fill="#F6E45C" d="M244.639 658.384C246.438 661.82 249.145 665.046 251.311 668.276C251.952 669.232 251.637 668.867 252.607 669.59C258.926 680.134 267.535 689.45 274.832 699.325C271.575 703.552 267.342 707.1 263.453 710.738L243.221 686.489C243.131 685.317 241.399 683.338 240.708 682.309C237.282 677.21 233.605 672.268 230.494 666.962C235.001 665.114 242.18 662.744 244.639 658.384Z"/>
	<path fill="#F6E45C" d="M201.294 587.108C205.273 585.979 209.361 584.735 213.107 582.976L214.265 586.067L214.323 586.378C218.476 602.787 224.531 619.168 231.646 634.513C226.984 636.656 222.583 638.865 218.253 641.613C217.442 642.127 217.78 641.971 216.784 642.106C215.792 638.278 213.408 635.05 211.976 631.407L197.285 591.665L197.311 591.058C197.613 589.213 199.84 588.171 201.294 587.108Z"/>
	<path fill="#FBF4AA" d="M201.294 587.108C205.273 585.979 209.361 584.735 213.107 582.976L214.265 586.067L213.873 586.203C208.45 588.123 203.181 591.405 197.285 591.665L197.311 591.058C197.613 589.213 199.84 588.171 201.294 587.108Z"/>
	<path fill="#F6E45C" d="M297.462 722.67L297.814 722.798C305.842 729.249 314.028 735.505 322 742.022C324.481 744.05 326.937 746.109 329.429 748.124C330.318 748.841 331.369 749.992 332.476 750.188C336.877 752.256 340.616 755.726 343.913 759.228C339.851 763.874 335.915 769.653 331.124 773.481L330.371 773.41C318.765 765.383 307.724 756.238 296.802 747.312C294.558 745.478 287.685 740.791 287.172 738L288.081 736.94C287.013 735.671 286.01 734.692 284.683 733.694C289.356 730.95 293.076 726.014 297.462 722.67Z"/>
	<path fill="#AD4F05" d="M330.371 773.41C318.765 765.383 307.724 756.238 296.802 747.312C294.558 745.478 287.685 740.791 287.172 738L288.081 736.94L328.759 768.714C332.265 764.501 336.051 760.028 338.864 755.315C336.656 753.716 334.319 752.211 332.476 750.188C336.877 752.256 340.616 755.726 343.913 759.228C339.851 763.874 335.915 769.653 331.124 773.481L330.371 773.41Z"/>
	<path fill="#ED9108" d="M297.814 722.798C300.015 722.755 300.791 722.901 302.467 724.51C303.871 725.858 307.632 729.563 309.376 729.921C310.294 730.992 310.455 731.095 311.622 731.775C312.086 732.046 312.321 732.605 312.75 732.929C316.055 735.425 319.602 737.747 322.839 740.425C327.189 744.024 331.635 748.397 336.5 751.255L337.255 751L337.332 750.595C337.832 748.577 339.577 746.468 341.002 745.003C341.798 744.185 345.005 741.62 345 740.698C342.53 740.668 340.635 740.768 338.25 740.084L336.25 739.745L333.755 737C332.769 735.831 331.727 733.832 331.135 732.439C333.407 734.566 335.09 736.878 336.936 739.357L411.681 739.976C408.929 743.523 405.627 746.7 402.51 749.929C393.252 759.52 383.202 768.324 373.981 777.91C380.592 781.456 388.037 783.755 395 786.55C403.3 789.881 411.507 793.856 420.017 796.599L417.061 802.1L420.26 805.595C418.686 807.104 417.031 808.61 415.595 810.25C414.19 811.855 413.543 813.84 411.475 814.737C407.527 816.471 405.053 819.415 402.068 822.43C398.499 826.035 394.992 829.684 391.511 833.374C388.912 836.128 386.351 839.389 382.627 840.543C364.753 834.037 346.851 826.874 330 818.019C322.275 813.96 315.049 809.032 307.396 804.853C313.383 798.391 318.317 789.632 323.356 782.353C325.533 779.209 327.52 776.001 330.371 773.41L331.124 773.481C335.915 769.653 339.851 763.874 343.913 759.228C340.616 755.726 336.877 752.256 332.476 750.188C331.369 749.992 330.318 748.841 329.429 748.124C326.937 746.109 324.481 744.05 322 742.022C314.028 735.505 305.842 729.249 297.814 722.798Z"/>
	<path fill="#F6E45C" d="M363.632 791.438C362.605 790.968 361.721 790.688 361.035 789.75C362.452 786.174 365.474 782.797 367.91 779.853C368.645 778.964 369.504 777.625 370.571 777.139C371.244 776.834 372.768 777.693 373.467 777.963L364.904 791.531L363.632 791.438Z"/>
	<path fill="#F4AE0B" d="M373.467 777.963L373.981 777.91C380.592 781.456 388.037 783.755 395 786.55C403.3 789.881 411.507 793.856 420.017 796.599L417.061 802.1L420.26 805.595C418.686 807.104 417.031 808.61 415.595 810.25C414.19 811.855 413.543 813.84 411.475 814.737C407.579 812.414 403.283 810.982 399.112 809.239C392.507 806.478 385.95 803.619 379.367 800.81C374.327 798.659 367.129 796.132 363.409 792.043L363.632 791.438L364.904 791.531L373.467 777.963Z"/>
	<path fill="#AD4F05" d="M363.632 791.438L364.904 791.531C369.849 794.66 375.816 796.561 381.218 798.798C391.395 803.012 401.631 807.107 411.713 811.548L417.061 802.1L420.26 805.595C418.686 807.104 417.031 808.61 415.595 810.25C414.19 811.855 413.543 813.84 411.475 814.737C407.579 812.414 403.283 810.982 399.112 809.239C392.507 806.478 385.95 803.619 379.367 800.81C374.327 798.659 367.129 796.132 363.409 792.043L363.632 791.438Z"/>
	<path fill="#F8D323" d="M316.651 318.967L316.938 388.665L316.956 477.485C313.759 479.926 311.011 483.079 308.191 485.95C302.002 492.253 296.109 498.824 289.973 505.178C274.418 521.285 258.569 537.122 242.883 553.101C233.113 563.053 223.523 573.723 213.107 582.976C209.361 584.735 205.273 585.979 201.294 587.108C203.014 584.074 204.925 581.187 206.295 577.965C207.988 573.979 208.966 569.349 209.764 565.089C206.347 565.485 202.931 565.895 199.51 566.261C197.799 566.445 195.84 566.849 194.18 566.335L193.127 563.053C191.41 555.351 190.824 547.113 190.283 539.25C189.763 531.671 188.958 524.034 189.163 516.427L189.044 514.728L189.608 513.047L195.505 511.909L196.657 510.014C197.065 507.077 198.464 504.174 199.546 501.421C202.29 494.44 205.521 487.65 208.75 480.885C213.653 470.615 218.669 460.287 223.165 449.833C228.846 436.621 232.969 422.671 237.193 408.941L316.688 327.441L316.651 318.967Z"/>
	<path fill="#F6E45C" d="M195.505 511.909C197.952 511.797 202.022 510.991 204.313 511.75L204.871 515.414L205.425 515.729L208.42 515.657C209.259 516.995 208.936 518.76 208.932 520.334C208.92 524.225 208.873 528.124 209.08 532.011C209.648 542.707 211.538 553.128 212.601 563.75C211.768 564.688 210.934 564.782 209.764 565.089C206.347 565.485 202.931 565.895 199.51 566.261C197.799 566.445 195.84 566.849 194.18 566.335L193.127 563.053C191.41 555.351 190.824 547.113 190.283 539.25C189.763 531.671 188.958 524.034 189.163 516.427L189.044 514.728L189.608 513.047L195.505 511.909Z"/>
	<path fill="#FBF4AA" d="M195.505 511.909C197.952 511.797 202.022 510.991 204.313 511.75L204.871 515.414C199.759 516.153 194.329 517.011 189.163 516.427L189.044 514.728L189.608 513.047L195.505 511.909Z"/>
	<path fill="#AD4F05" d="M205.425 515.729L208.42 515.657C209.259 516.995 208.936 518.76 208.932 520.334C208.92 524.225 208.873 528.124 209.08 532.011C209.648 542.707 211.538 553.128 212.601 563.75C211.768 564.688 210.934 564.782 209.764 565.089C206.347 565.485 202.931 565.895 199.51 566.261C197.799 566.445 195.84 566.849 194.18 566.335L193.127 563.053L209.37 560.051L205.425 515.729Z"/>
	<path fill="#C87A0C" d="M841.883 395.416C848.79 421.093 853.454 447.907 854.822 474.479C856.489 506.848 853.231 538.728 846.641 570.393C841.517 595.013 834.312 619.4 824.247 642.484C818.961 654.609 812.642 666.307 806.029 677.75C793.747 698.999 779.072 718.234 762.657 736.427C746.394 754.45 728.962 771.105 709.536 785.704C700.86 792.225 691.776 797.93 682.527 803.593C651.195 822.779 617.51 837.365 581.967 846.71C529.474 860.511 471.486 861.299 418.426 850.2C406.25 847.652 394.623 843.641 382.627 840.543C386.351 839.389 388.912 836.128 391.511 833.374C394.992 829.684 398.499 826.035 402.068 822.43C405.053 819.415 407.527 816.471 411.475 814.737C413.543 813.84 414.19 811.855 415.595 810.25C417.031 808.61 418.686 807.104 420.26 805.595L546.349 681.471L590.255 743.537C624.534 742.736 659.625 745.641 693.5 739.542C697.362 738.847 701.986 738.586 705.135 736.066C705.79 734.035 705.095 732.589 704.116 730.75C701.541 725.916 696.324 721.046 694.656 716.003C695.712 716.299 696.371 717.505 697.06 718.36C699.419 721.29 701.508 724.796 704.25 727.37C705.533 728.575 707.246 729.174 708.517 730.487C711.787 733.864 714.178 738.11 717.514 741.521C735.197 728.869 750.524 709.732 762.59 691.75L762.412 690.577L761.367 690.16C758.494 688.007 755.466 686.104 752.5 684.086C751.048 683.099 749.225 681.389 747.5 681.078L745.222 683.594C744.335 686.064 742.296 688.144 740.75 690.261C731 703.615 719.382 715.991 706.768 726.666C705.022 726.195 704.012 724.564 702.923 723.227C699.951 719.577 697.171 715.819 694.426 712C686.356 700.773 677.911 689.806 669.947 678.505C656.766 659.853 642.633 641.786 628.942 623.5C623.811 616.646 617.251 609.571 613.052 602.172L798.207 420.671C798.627 422.045 799.009 423.699 800.25 424.465C804.634 423.266 808.931 421.381 813.205 419.814C814.692 419.269 816.866 418.823 817.802 417.48C818.147 417.758 818.591 417.636 819.025 417.637C827.466 411.859 835.49 403.378 841.883 395.416Z"/>
	<path fill="#AD4F05" d="M695.549 759.265L696.427 759.5L696.564 760.75C693.213 764.257 689.324 766.496 685.401 769.262C676.298 775.68 667.192 781.828 657.35 787.06C653.858 788.916 650.295 790.998 646.574 792.339C645.869 791.307 645.779 791.185 645.75 789.946L646.397 789.833C663.848 781.151 679.948 770.934 695.549 759.265Z"/>
	<path fill="#AD4F05" d="M805.772 613.426L806.391 613.141C807.222 615.154 805.506 618.56 804.704 620.485C797.864 636.921 791.052 655.058 779.928 669.147C774.666 666.339 768.702 662.405 763.088 660.534L764.374 657.965L764.991 657.922L780.392 665.711L805.772 613.426Z"/>
	<path fill="#AD4F05" d="M820.837 442.056C823.247 444.564 823.788 451.437 824.352 455.002C826.9 471.099 828.077 487.16 828.036 503.455C823.789 503.444 819.543 503.433 815.296 503.422C813.583 503.417 811.516 503.824 810.175 502.75L810.082 498.5C811.128 497.574 812.337 497.719 813.698 497.557L826.542 497.354C826.424 478.599 823.856 460.526 820.837 442.056Z"/>
	<path fill="#AD4F05" d="M826.901 524.845L827.503 525C827.709 529.013 827.014 532.863 826.604 536.838C825.316 549.326 822.875 561.294 820.136 573.525C819.166 577.858 818.556 583.025 816.632 587.055L797.695 583.325L803.562 559.869L804.774 553.785L805.375 549.945L805.992 545.311L806.636 545.697L799.306 580.431C804.939 580.834 810.539 582.026 816.046 583.227L826.901 524.845Z"/>
	<path fill="#AD4F05" d="M514.839 807.086C515.944 809.166 515.564 811.908 515.578 814.216C515.604 818.641 515.607 823.06 515.707 827.483C502.371 827.275 489.034 827.069 475.698 826.834C472.074 826.771 468.451 826.694 464.828 826.593C462.74 826.534 460.255 826.711 458.25 826.139L457.64 822.405C464.743 823.552 472.17 823.703 479.351 823.889C491.038 824.193 502.763 824.083 514.454 824.088C514.462 818.494 514.107 812.632 514.839 807.086Z"/>
	<path fill="#AD4F05" d="M606.774 789.935C608.074 791.179 608.2 793.761 608.528 795.5C609.293 799.565 610.442 803.537 611 807.643C598.334 812.068 584.972 814.914 572.004 818.342C567.38 819.565 562.748 820.72 558.106 821.871C555.909 822.416 553.513 823.414 551.25 823.37C550.976 822.49 550.649 821.666 550.616 820.74L609.553 804.895C608.475 799.989 607.117 794.95 606.774 789.935Z"/>
	<path fill="#F4AE0B" d="M640.293 775.174C649.063 770.494 657.475 765.677 665.652 759.999C671.66 755.827 677.265 751.177 683.165 746.873L695.549 759.265C679.948 770.934 663.848 781.151 646.397 789.833C645.284 788.667 644.885 786.761 644.35 785.234C643.156 781.822 642.024 778.36 640.293 775.174Z"/>
	<path fill="#F4AE0B" d="M789.474 607.472C791.841 607.655 794.013 608.908 796.203 609.768C799.369 611.01 802.706 611.969 805.772 613.426L780.392 665.711L764.991 657.922C767.307 655.157 769.127 651.136 770.916 647.984C775.834 639.314 780.348 630.57 784.335 621.429C786.286 616.953 788.537 612.275 789.474 607.472Z"/>
	<path fill="#F4AE0B" d="M803.124 443.147C808.448 442 814.796 440.596 820.168 440.25L820.837 442.056C823.856 460.526 826.424 478.599 826.542 497.354L813.698 497.557L809.66 497.329C808.583 493.045 809.092 487.174 808.739 482.68C807.695 469.412 806.442 456.077 803.124 443.147Z"/>
	<path fill="#F4AE0B" d="M809.103 524.392L826.901 524.845L816.046 583.227C810.539 582.026 804.939 580.834 799.306 580.431L806.636 545.697C808.497 539.288 808.44 531.071 809.103 524.392Z"/>
	<path fill="#F4AE0B" d="M456.477 805.914L514.839 807.086C514.107 812.632 514.462 818.494 514.454 824.088C502.763 824.083 491.038 824.193 479.351 823.889C472.17 823.703 464.743 823.552 457.64 822.405L456.561 821.5L456.477 805.914Z"/>
	<path fill="#F4AE0B" d="M546.567 802.432C560.646 799.702 574.484 795.666 588.305 791.857C593.61 790.395 600.309 787.465 605.697 787.25L606.774 789.935C607.117 794.95 608.475 799.989 609.553 804.895L550.616 820.74C550.105 814.723 548.141 808.258 546.567 802.432Z"/>
	<defs>
		<linearGradient id="gradient_0" gradientUnits="userSpaceOnUse" x1="192.2957" y1="307.99899" x2="825.68365" y2="460.98312">
			<stop offset="0" stop-color="#CB8100"/>
			<stop offset="1" stop-color="#E3B02A"/>
		</linearGradient>
	</defs>
	<path fill="url(#gradient_0)" d="M156.709 549.466C154.093 525.403 153.792 501.512 155.706 477.39C156.554 466.689 157.603 455.878 159.662 445.337C163.9 423.644 170.668 402.557 178.083 381.778C185.287 361.593 195.87 341.726 207.062 323.51C219.707 302.928 233.964 283.319 250.333 265.517C281.526 231.595 320.701 204.054 362.219 184.337C426.173 153.967 500.583 142.224 570.75 151.421C580.271 152.669 589.629 154.303 599 156.385C603.369 157.356 607.786 158.128 612.009 159.634C623.837 162.259 635.336 166.336 646.631 170.661C664.907 177.658 682.907 185.943 699.939 195.597C704.699 198.295 709.528 201.21 714.077 204.25C716.895 206.133 719.888 208.957 722.957 210.28C724.507 210.749 725.7 212.104 726.932 213.125C730.137 215.782 733.278 218.498 736.378 221.276C766.509 248.281 790.118 279.498 809.241 315.04C819.16 333.477 828.34 353.42 835.316 373.134C837.9 380.438 839.706 387.991 841.883 395.416C835.49 403.378 827.466 411.859 819.025 417.637C818.591 417.636 818.147 417.758 817.802 417.48C816.866 418.823 814.692 419.269 813.205 419.814C808.931 421.381 804.634 423.266 800.25 424.465C799.009 423.699 798.627 422.045 798.207 420.671L613.052 602.172L580.122 557.509L545.371 510.464L689.533 336.611L676.339 315.097L675.876 315.461L672.529 309.445L653.233 309.931L621.358 309.928L552.529 309.602C550.16 309.775 549.667 309.954 548.064 311.822L440.196 438.801L421.746 460.421L421.544 324.311L421.894 312.845L421.63 310.458L419.992 309.907L337.836 310.023L329.482 310.065L316.602 310.083L316.651 318.967L316.688 327.441L237.193 408.941C232.969 422.671 228.846 436.621 223.165 449.833C218.669 460.287 213.653 470.615 208.75 480.885C205.521 487.65 202.29 494.44 199.546 501.421C198.464 504.174 197.065 507.077 196.657 510.014L195.505 511.909L189.608 513.047L189.044 514.728C181.633 522.107 174.635 529.865 167.275 537.291C164.723 539.865 162.154 542.422 159.582 544.976C158.965 545.59 157.12 547.05 156.786 547.75C156.54 548.267 156.735 548.894 156.709 549.466Z"/>
	<path fill="#AD4F05" d="M470.893 197.948L471.334 197.843L470.994 198.442C467.165 199.817 461.254 200.119 457.148 200.517C449.653 201.245 441.873 203.121 434.601 205.056L434.192 206.143C434.991 206.951 435.461 207.1 436.5 207.5L437.5 206.877L439.375 206.875C439.884 206.766 440.341 206.469 440.852 206.367L445.25 205.5L446.5 205.25C447.119 205.051 447.575 204.768 448.243 204.68L449.75 204.5C450.309 204.35 451.46 204.085 452 203.877L452.625 203.502C453.755 203.498 454.899 203.256 456 203C456.851 202.802 457.584 202.622 458.461 202.555C459.602 202.467 460.629 202.155 461.75 202L463 201.877C463.908 201.642 464.93 201.751 465.75 201.5C467.334 201.015 465.921 201.162 467.414 201.047L469.5 200.877C470.878 200.403 471.902 200.344 473.375 200.252L473.375 198.125L473.974 197.948L474.472 200.25C472.926 201.737 467.632 201.788 465.355 202.153C459.739 203.052 454.151 204.203 448.601 205.444C440.597 206.801 432.65 208.908 424.823 211.042C422.264 211.74 419.726 212.514 417.178 213.25C416.742 213.376 415.15 214.003 414.75 213.94C414.378 213.882 414.083 213.59 413.75 213.415L412.637 210.442C419.899 208.628 427.012 206.126 434.282 204.268C446.352 201.182 458.52 199.34 470.893 197.948Z"/>
	<path fill="#AD4F05" d="M384.31 222.121C385.505 222.775 386.317 224.598 387.056 225.777C376.842 231.007 367.153 236.731 357.455 242.843C352.302 246.091 347.054 250.431 341.5 252.904C340.471 252.258 339.931 251.561 339.558 250.375L339.502 249.875C349.063 244.084 357.826 237.172 367.56 231.543C371.028 229.538 374.548 227.674 378.117 225.858C380.22 224.789 382.682 223.851 384.31 222.121Z"/>
	<path fill="#AD4F05" d="M311.978 269.221C313.214 270.094 314.254 271.006 315.329 272.069C304.841 281.027 295.034 290.574 285.976 300.982C284.498 302.681 281.949 306.709 280.232 307.75C279.911 307.945 279.48 307.75 279.104 307.75L276.511 305.457C287.157 292.056 299.117 280.464 311.978 269.221Z"/>
	<path fill="#AD4F05" d="M569.296 183.888C570.571 184.602 571.795 185.244 572.872 186.25L569.868 203.059C555.13 200.241 540.949 198.241 525.929 198.547C523.158 198.685 520.369 198.785 517.606 199.041C515.63 199.224 513.3 199.807 511.373 199.25L510.902 195.631L529.982 195.509L566.711 199.445L569.296 183.888Z"/>
	<path fill="#AD4F05" d="M253.051 336.376L256.937 338.821C246.76 352.606 237.742 369.199 231.927 385.343C228.889 383.982 225.852 382.642 222.759 381.41C219.394 380.068 215.476 379.132 213.499 375.877C219.05 376.965 224.403 379.144 229.582 381.365C235.681 365.51 244.42 350.94 253.051 336.376Z"/>
	<path fill="#AD4F05" d="M218.594 415.332L220.608 417.25C220.497 420.334 219.273 423.24 218.396 426.179C217.284 429.904 216.346 433.693 215.42 437.468C212.826 448.049 211.133 458.951 210.463 469.821C206.067 469.454 201.745 468.8 197.367 468.347C195.513 468.155 192.312 468.322 191.048 467L190.811 464.25L192.349 463.711L206.364 465.752C206.741 459.288 208.109 452.578 209.494 446.25C211.799 435.721 214.619 425.361 218.594 415.332Z"/>
	<path fill="#F6E45C" d="M510.583 179.388L546.058 180.195C541.272 185.706 534.385 189.875 529.982 195.509L510.902 195.631C509.893 193.784 510.457 190.174 510.474 188.006L510.583 179.388Z"/>
	<path fill="#F8D323" d="M546.058 180.195C550.377 181.437 567.337 180.962 569.458 183.341L569.296 183.888L566.711 199.445L529.982 195.509C534.385 189.875 541.272 185.706 546.058 180.195Z"/>
	<path fill="#F8D323" d="M300.345 257.582L311.978 269.221C299.117 280.464 287.157 292.056 276.511 305.457L263.686 295.258C266.431 291.134 270.325 287.398 273.657 283.719C281.835 274.691 290.495 264.758 300.345 257.582Z"/>
	<path fill="#F8D323" d="M238.081 328.882L253.051 336.376C244.42 350.94 235.681 365.51 229.582 381.365C224.403 379.144 219.05 376.965 213.499 375.877L238.081 328.882Z"/>
	<path fill="#F8D323" d="M201.455 411.64C206.985 413.034 213.317 413.423 218.594 415.332C214.619 425.361 211.799 435.721 209.494 446.25C208.109 452.578 206.741 459.288 206.364 465.752L192.349 463.711C191.534 463.543 191.145 463.396 190.373 463C190.35 456.635 192.09 449.836 193.379 443.598C195.576 432.968 197.734 421.837 201.455 411.64Z"/>
	<path fill="#F8D323" d="M329.982 235.825L376.571 207.732C379.238 212.432 380.946 217.86 384.31 222.121C382.682 223.851 380.22 224.789 378.117 225.858C374.548 227.674 371.028 229.538 367.56 231.543C357.826 237.172 349.063 244.084 339.502 249.875L329.982 235.825Z"/>
	<path fill="#F8D323" d="M407.946 195.282L467.844 180.835L470.893 197.948C458.52 199.34 446.352 201.182 434.282 204.268C427.012 206.126 419.899 208.628 412.637 210.442L407.946 195.282Z"/>
	<path fill="#F8D323" d="M746.603 290.692C751.015 295.837 755.421 301.008 759.609 306.339C761.472 308.711 763.411 311.056 765.179 313.498C766.088 314.755 767.275 316.873 768.608 317.662C771.093 319.588 772.785 322.51 774.556 325.078C777.327 329.098 780.335 333.239 782.273 337.743L767.558 348.466C765.537 346.377 764.477 344.091 762.972 341.644C760.592 337.774 758.112 333.937 755.526 330.201C753.205 326.849 750.869 323.541 748.354 320.329C746.363 317.785 744.032 315.402 742.664 312.453L742.621 311.951C740.049 308.671 737.258 304.9 733.813 302.529L746.603 290.692Z"/>
	<path fill="#AD4F05" d="M742.664 312.453C746.607 316.254 749.836 320.849 753.069 325.257C757.209 330.902 761.434 336.664 764.695 342.87L778.526 333.582L768.608 317.662C771.093 319.588 772.785 322.51 774.556 325.078C777.327 329.098 780.335 333.239 782.273 337.743L767.558 348.466C765.537 346.377 764.477 344.091 762.972 341.644C760.592 337.774 758.112 333.937 755.526 330.201C753.205 326.849 750.869 323.541 748.354 320.329C746.363 317.785 744.032 315.402 742.664 312.453Z"/>
	<path fill="#F8D323" d="M681.746 227.198L726.531 264.854L730.999 269.865L716.561 282.696C713.765 278.674 709.788 275.176 706.218 271.855L679.543 250.417C677.856 247.136 674.096 245.756 672.347 242.497L672.102 241.738C672.194 238.328 679.654 230.032 681.746 227.198Z"/>
	<path fill="#AD4F05" d="M672.347 242.497C676.121 244.483 679.638 247.449 683.067 250.003C691.506 256.286 699.745 262.879 707.117 270.398L713.348 276.643L726.531 264.854L730.999 269.865L716.561 282.696C713.765 278.674 709.788 275.176 706.218 271.855L679.543 250.417C677.856 247.136 674.096 245.756 672.347 242.497Z"/>
	<path fill="#F4AE0B" d="M791.89 359.082L796.297 366.796C798.603 368.324 799.963 372.098 801.225 374.53C808.456 388.464 813.149 402.581 817.802 417.48C816.866 418.823 814.692 419.269 813.205 419.814C808.931 421.381 804.634 423.266 800.25 424.465C799.009 423.699 798.627 422.045 798.207 420.671C794.806 410.452 791.301 400.155 787.337 390.141C785.91 386.538 784.448 382.926 782.773 379.431C781.327 376.413 779.403 373.353 778.917 370.005L777.139 366.303L791.89 359.082Z"/>
	<path fill="#AD4F05" d="M796.297 366.796C798.603 368.324 799.963 372.098 801.225 374.53C808.456 388.464 813.149 402.581 817.802 417.48C816.866 418.823 814.692 419.269 813.205 419.814C808.931 421.381 804.634 423.266 800.25 424.465C799.009 423.699 798.627 422.045 798.207 420.671C794.806 410.452 791.301 400.155 787.337 390.141C785.91 386.538 784.448 382.926 782.773 379.431C781.327 376.413 779.403 373.353 778.917 370.005C781.305 373.455 782.945 377.595 784.64 381.426C790.048 393.651 794.023 406.168 798.258 418.817L814.058 413.688L796.297 366.796Z"/>
	<path fill="#F8D323" d="M599.987 190.364C618.105 196.303 636.499 203.337 653.214 212.588L657.535 216.046L648.622 233.042L633.748 225.409C625.761 220.99 616.407 217.823 607.746 214.946C603.731 213.612 599.382 212.698 595.624 210.75L595.228 207.741L593.25 206.574C593.055 204.957 594.012 203.437 594.659 201.951C596.358 198.057 598.179 194.209 599.987 190.364Z"/>
	<path fill="#AD4F05" d="M595.228 207.741C612.709 213.164 629.374 219.77 645.505 228.445L653.214 212.588L657.535 216.046L648.622 233.042L633.748 225.409C625.761 220.99 616.407 217.823 607.746 214.946C603.731 213.612 599.382 212.698 595.624 210.75L595.228 207.741Z"/>
	<path fill="#AD4F05" d="M421.894 312.845L440.015 314.834L440.196 438.801L421.746 460.421L421.544 324.311L421.894 312.845Z"/>
	<path fill="#F4AE0B" d="M633.748 225.409L648.622 233.042L669.784 245.755C672.223 247.103 675.386 249.416 678.038 249.982C672.178 255.761 622.022 306.624 621.358 309.928L552.529 309.602C553.566 305.957 568.043 292.608 571.832 288.627C581.802 278.15 591.498 267.327 601.713 257.091C612.322 246.459 623.816 236.721 633.748 225.409Z"/>
	<path fill="#D99A1B" d="M237.193 408.941C238.046 402.996 240.333 396.731 242.221 391.022C247.234 375.859 253.175 359.584 260.987 345.636C263.399 341.331 266.35 337.327 269.376 333.439C291.381 305.168 317.437 280.718 346.078 259.308C353.986 253.397 361.524 247.409 370.322 242.821C379.663 237.95 390.126 235.397 399.938 231.667C405.487 229.558 411.055 227.561 416.643 225.559C419.661 224.478 422.328 223.086 425.547 222.691C418.429 229.046 411.048 235.059 404.158 241.681C389.036 256.216 374.872 271.854 360.112 286.776C355.355 291.585 350.595 296.391 345.847 301.209C343.222 303.874 339.734 306.848 337.836 310.023L329.482 310.065L316.602 310.083L316.651 318.967L316.688 327.441L237.193 408.941Z"/>
	<path fill="#F8D323" d="M510.474 188.006C510.457 190.174 509.893 193.784 510.902 195.631L511.373 199.25C513.3 199.807 515.63 199.224 517.606 199.041C520.369 198.785 523.158 198.685 525.929 198.547C524.975 200.84 522.09 203.112 520.359 204.888C515.007 210.377 509.541 215.756 504.195 221.25C477.273 248.916 451.016 277.273 423.759 304.614C422.917 305.458 420.02 307.786 419.623 308.75C419.469 309.124 419.869 309.522 419.992 309.907L337.836 310.023C339.734 306.848 343.222 303.874 345.847 301.209C350.595 296.391 355.355 291.585 360.112 286.776C374.872 271.854 389.036 256.216 404.158 241.681C411.048 235.059 418.429 229.046 425.547 222.691C428.756 220.684 431.562 218.14 434.895 216.315C439.232 212.081 445.606 211.059 448.601 205.444C454.151 204.203 459.739 203.052 465.355 202.153C467.632 201.788 472.926 201.737 474.472 200.25L473.974 197.948L472.314 189.089L472.932 189.078L473.048 189.676L474.496 196.254C474.865 197.74 474.897 199.155 475.75 200.5C476.731 200.444 477.346 200.345 478.25 200L480.049 199.289C481.006 198.559 482.006 197.555 483.208 197.317L483.75 197.255C484.468 196.943 484.966 196.528 485.75 196.255L489.815 194.721L490.502 194.502L493.766 193.505L494.5 193.255L496 192.755C496.654 192.51 497.184 192.253 497.876 192.113L499.75 191.755L500.25 191.255L501.25 191.255C502.19 190.628 501.716 190.799 502.727 190.627C503.629 190.474 503.329 190.592 504.102 190.251L504.625 190.002L505.5 189.755L506.25 189.255C507.92 189.353 509.029 188.777 510.474 188.006Z"/>
	<path fill="#F4AE0B" d="M472.314 189.089L472.932 189.078L473.048 189.676L474.496 196.254C474.865 197.74 474.897 199.155 475.75 200.5C476.731 200.444 477.346 200.345 478.25 200L480.049 199.289C484.844 199.722 489.295 200.766 493.848 202.312C487.969 203.454 481.776 204.069 476.089 205.963C470.619 207.785 465.39 210.41 459.986 212.446C458.098 213.157 455.779 214.287 453.799 214.52C451.778 214.759 448.045 213.903 446.024 213.365L442.508 212.44C440.147 213.868 437.615 215.739 434.895 216.315C439.232 212.081 445.606 211.059 448.601 205.444C454.151 204.203 459.739 203.052 465.355 202.153C467.632 201.788 472.926 201.737 474.472 200.25L473.974 197.948L472.314 189.089Z"/>
	<path fill="#ED9108" d="M672.102 241.738L672.347 242.497C674.096 245.756 677.856 247.136 679.543 250.417L706.218 271.855C709.788 275.176 713.765 278.674 716.561 282.696C720.715 288.223 725.031 293.551 729.73 298.629C730.827 299.815 732.32 301.927 733.813 302.529C737.258 304.9 740.049 308.671 742.621 311.951L742.664 312.453C744.032 315.402 746.363 317.785 748.354 320.329C750.869 323.541 753.205 326.849 755.526 330.201C758.112 333.937 760.592 337.774 762.972 341.644C764.477 344.091 765.537 346.377 767.558 348.466L766.711 350.843C765.648 354.09 771.433 363.068 773.228 366.158C773.676 366.929 774.131 367.592 774.688 368.283C767.996 374.703 760.664 380.369 753.96 386.786C710.498 428.394 667.5 470.651 625.039 513.275C614.182 524.174 603.044 534.816 592.151 545.689C588.273 549.56 583.518 553.253 580.122 557.509L545.371 510.464L689.533 336.611L676.339 315.097L675.876 315.461L672.529 309.445L653.233 309.931L621.358 309.928C622.022 306.624 672.178 255.761 678.038 249.982C675.386 249.416 672.223 247.103 669.784 245.755L670.198 245.541C671.944 244.254 671.777 243.713 672.102 241.738Z"/>
</svg>
